<?xml version="1.0" encoding="UTF-8"?>
<svg width="50px" height="50px" viewBox="0 0 50 50" version="1.1" xmlns="http://www.w3.org/2000/svg" xmlns:xlink="http://www.w3.org/1999/xlink">
    <!-- Generator: Sketch 49.3 (51167) - http://www.bohemiancoding.com/sketch -->
    <title>4</title>
    <desc>Created with Sketch.</desc>
    <defs></defs>
    <g id="4" stroke="none" stroke-width="1" fill="none" fill-rule="evenodd">
        <g id="Group-7-Copy">
            <rect id="Rectangle-12-Copy-3" x="0" y="0" width="50" height="50"></rect>
            <g id="zhexiantu-copy" transform="translate(0.000000, 5.000000)" fill="#2585D5" fill-rule="nonzero">
                <path d="M25.1011097,28.4748887 L25.1011097,43.1495102 C25.1011097,43.3547475 25.1790574,43.5600998 25.3338702,43.7174045 C25.4886259,43.8747091 25.6933525,43.9533901 25.8968826,43.9533901 L31.7497957,43.9533901 C31.9545223,43.9533901 32.1580523,43.8747091 32.3140047,43.7174045 C32.4687605,43.5600999 32.5467651,43.3547476 32.5467651,43.1495102 L32.5467651,24.5919309 L26.5951068,29.7593609 L25.1011097,28.4748887 Z" id="Shape"></path>
                <path d="M0.0856610802,43.1495102 C0.0856610802,43.3547476 0.163665757,43.5612494 0.31961804,43.7174045 C0.474373831,43.8747091 0.677903842,43.9533901 0.882630457,43.9533901 L6.73434699,43.9533901 C6.93907361,43.9533901 7.14260362,43.8747091 7.29735941,43.7174045 C7.45331175,43.5600999 7.53131637,43.3547476 7.53131637,43.1495102 L7.53131643,28.2401101 L0.0856610802,34.4351062 L0.0856610802,43.1495102 Z" id="Shape"></path>
                <path d="M12.5909638,24.0277724 L12.5909638,43.1495102 C12.5909638,43.3547476 12.6689685,43.5600999 12.8249208,43.7174045 C12.9808731,43.8747091 13.1844031,43.9533901 13.3878762,43.9533901 L19.2420428,43.9533901 C19.4467694,43.9533901 19.6502994,43.8747091 19.8050552,43.7174045 C19.9610076,43.5600999 20.0390122,43.3547476 20.0390122,43.1495102 L20.0390122,24.1285233 L16.3174096,20.932717 L12.5909638,24.0277724 Z" id="Shape"></path>
                <path d="M37.6088056,43.1495102 C37.6088056,43.3547476 37.6856137,43.5612494 37.8403695,43.7174045 C37.9963218,43.8747091 38.2010484,43.9533901 38.4045215,43.9533901 L44.2599417,43.9533901 C44.4646683,43.9533901 44.6681414,43.8747091 44.8228971,43.7174045 C44.9789064,43.5600999 45.0568541,43.3547476 45.0568541,43.1495102 L45.0568541,13.7273391 L37.6088056,20.1964257 L37.6088056,43.1495102 Z" id="Shape"></path>
                <path d="M36.3244354,0.0467248356 C36.2195934,0.0467248356 36.1197087,0.108163841 36.0782848,0.212650432 C36.0356643,0.315872593 36.0636411,0.430244564 36.1367455,0.505189868 L41.7337646,6.05487517 L26.5951068,19.203286 L16.3174096,10.3729638 L0.0430405902,23.9146648 L0.0430405902,29.7642462 L16.3174666,16.223752 L26.5951068,25.0516029 L44.8814718,9.1732648 L49.5048287,13.7605012 C49.5791866,13.8330325 49.6925185,13.8588381 49.7948533,13.8157906 C49.8959915,13.772743 49.9569594,13.6744636 49.9569594,13.569977 L49.9569594,0.313458704 C49.9569594,0.245870036 49.9313757,0.177016938 49.8790117,0.124198941 C49.8265908,0.0725878603 49.7595262,0.0467248356 49.6913219,0.0467248356 L36.3244354,0.0467248356 Z" id="Shape"></path>
            </g>
        </g>
    </g>
</svg>