<?xml version="1.0" encoding="UTF-8"?>
<svg width="160px" height="45px" viewBox="0 0 160 45" version="1.1" xmlns="http://www.w3.org/2000/svg" xmlns:xlink="http://www.w3.org/1999/xlink">
    <!-- Generator: Sketch 49.3 (51167) - http://www.bohemiancoding.com/sketch -->
    <title>Group 17</title>
    <desc>Created with Sketch.</desc>
    <defs></defs>
    <g id="Page-1" stroke="none" stroke-width="1" fill="none" fill-rule="evenodd">
        <g id="Group-17" fill="#FFFFFF">
            <path d="M70.6504208,31.7506887 C70.8257372,31.7506887 70.9659883,31.6873285 71.0711782,31.5606061 C71.1938997,31.4127633 71.2552595,31.2121225 71.2552595,30.9586777 L71.2552595,26.6184573 L69.9403927,26.6184573 L69.9403927,31.5606061 L69.2040674,34 L66.7584152,34 L67.4947406,31.5606061 L67.4947406,11 L72.6227209,11 C72.9207589,11 73.1749639,11.1372805 73.3853437,11.4118457 C73.5957234,11.6864109 73.7009117,12.0137722 73.7009117,12.3939394 L73.7009117,32.1942149 C73.7009117,32.7222249 73.5606606,33.1551866 73.2801543,33.4931129 C72.999648,33.8310393 72.6490204,34 72.2282609,34 L69.7300141,34 L70.3874474,31.7506887 L70.6504208,31.7506887 Z M63.8657083,31.7506887 C64.0585564,31.7506887 64.2075731,31.6873285 64.312763,31.5606061 C64.4354845,31.4127633 64.4968443,31.2121225 64.4968443,30.9586777 L64.4968443,26.6184573 L63.1819776,26.6184573 L63.1819776,31.5606061 L62.4456522,34 L60,34 L60.7363254,31.5606061 L60.7363254,11 L65.8117111,11 C66.1448123,11 66.4165488,11.1372805 66.6269285,11.4118457 C66.8373082,11.6864109 66.9424965,12.0137722 66.9424965,12.3939394 L66.9424965,32.1942149 C66.9424965,32.7011045 66.7934798,33.1340662 66.4954418,33.4931129 C66.2149355,33.8310393 65.8730736,34 65.4698457,34 L62.9715989,34 L63.6290323,31.7506887 L63.8657083,31.7506887 Z M78.7500001,12.3305785 L83.2731417,12.3305785 L83.2731417,20.0922865 C83.2731417,20.7892597 83.0715308,21.380622 82.668303,21.8663912 C82.2650752,22.3732808 81.7741965,22.6267218 81.1956522,22.6267218 L78.7500001,22.6267218 L79.5389201,20.0922865 L80.1700562,20.0922865 C80.3453726,20.0922865 80.4856237,20.0183662 80.5908135,19.8705234 C80.6960034,19.743801 80.7485975,19.5748404 80.7485975,19.3636364 L80.7485975,14.8333333 L76.9091866,14.8333333 L76.9091866,23.3553719 L83.2731417,23.3553719 L83.2731417,31.5289256 C83.2731417,32.2258988 83.0715308,32.8172611 82.668303,33.3030303 C82.2650752,33.7676791 81.7741965,34 81.1956522,34 L78.3818374,34 L79.1181628,31.5289256 L80.0911642,31.5289256 C80.248949,31.5289256 80.3892,31.4550053 80.5119215,31.3071625 C80.6171114,31.1804401 80.6697055,31.0114795 80.6697055,30.8002755 L80.6697055,25.9214876 L74.2268584,25.9214876 L74.2268584,12.3305785 L75.7258065,12.3305785 L75.9887799,11.0316804 L78.9603787,11.0316804 L78.7500001,12.3305785 Z M80.0122722,30.1349862 L74.3320477,30.1349862 L74.3320477,27.7272727 L80.0122722,27.7272727 L80.0122722,30.1349862 Z M80.2752455,19.3319559 L78.0136747,19.3319559 L77.2773493,16.0371901 L79.5652175,16.0371901 L80.2752455,19.3319559 Z M64.4968443,24.2741047 L64.4968443,19.6804408 L63.1819776,19.6804408 L63.1819776,24.2741047 L64.4968443,24.2741047 Z M71.2552595,24.2741047 L71.2552595,19.6804408 L69.9403927,19.6804408 L69.9403927,24.2741047 L71.2552595,24.2741047 Z M69.9403927,13.1225895 L69.9403927,17.3044077 L71.2552595,17.3044077 L71.2552595,13.4710744 C71.2552595,13.23875 71.1588369,13.1225895 70.9659888,13.1225895 L69.9403927,13.1225895 Z M63.1819776,13.1225895 L63.1819776,17.3044077 L64.4968443,17.3044077 L64.4968443,13.4710744 C64.4968443,13.23875 64.391656,13.1225895 64.1812763,13.1225895 L63.1819776,13.1225895 Z M93.9469378,32.8911846 L86.3733053,33.8732782 L86.3733053,31.2121212 L88.5296868,30.9269972 L88.5296868,17.5578512 L86.9255493,17.5578512 L86.9255493,14.8966942 L88.5296868,14.8966942 L88.5296868,11.7603306 L91.7905563,11.7603306 L91.7905563,14.8966942 L93.3946938,14.8966942 L93.3946938,17.5578512 L91.7905563,17.5578512 L91.7905563,30.4834711 L93.9469378,30.2300275 L93.9469378,32.8911846 Z M109.436068,17.5578512 L107.490066,25.1928375 L109.146798,33.9366391 L106.332983,33.9366391 L105.859631,31.4655647 L105.228495,33.9366391 L102.598761,33.9366391 L104.755143,25.6046832 L102.835437,15.5619835 L97.7600514,15.5619835 L97.7600514,18.8567493 L102.861734,18.8567493 L102.861734,30.4517906 C102.861734,30.9375598 102.787226,31.3916416 102.638207,31.8140496 C102.489188,32.2364576 102.283194,32.606059 102.02022,32.922865 C101.757245,33.239671 101.450446,33.487832 101.099813,33.6673554 C100.74918,33.8468788 100.372255,33.9366391 99.9690276,33.9366391 L97.9178355,33.9366391 L98.8119449,31.4655647 L99.1275129,31.4655647 C99.3729559,31.4655647 99.5701839,31.3705244 99.7192029,31.1804408 C99.8682219,30.9903572 99.9427303,30.7474762 99.9427303,30.4517906 L99.9427303,21.5179063 L97.7600514,21.5179063 L97.7600514,31.1487603 L97.0763207,33.9366391 L93.9469378,33.9366391 L94.6306685,31.1487603 L94.6306685,12.869146 L102.30949,12.869146 L101.967625,11.0633609 L104.78144,11.0633609 L105.123305,12.869146 L106.148901,12.869146 L105.807036,11.0633609 L108.489364,11.0633609 L109.357176,15.5619835 L105.649252,15.5619835 L106.35928,19.3319559 L106.806335,17.5578512 L109.436068,17.5578512 Z M121.266947,30.7369146 L121.266947,25.5096419 L112.615124,25.5096419 L112.615124,22.4049587 L121.266947,22.4049587 L121.266947,17.6528926 L112.273258,17.6528926 L112.299556,17.6528926 L111.826204,17.6528926 L113.141071,11.7286501 L116.743805,11.7286501 L115.928588,14.5482094 L121.266947,14.5482094 L121.266947,11.1267218 L124.922277,11.1267218 L124.922277,14.5482094 L134.415615,14.5482094 L134.415615,17.6528926 L124.922277,17.6528926 L124.922277,22.4049587 L133.5741,22.4049587 L133.5741,25.5096419 L124.922277,25.5096419 L124.922277,30.7369146 L134.152641,30.7369146 L134.152641,33.8415978 L112.036582,33.8415978 L112.036582,30.7369146 L121.266947,30.7369146 Z M145.799439,29.7865014 C145.799439,30.0610666 145.87833,30.2933875 146.036115,30.4834711 C146.1939,30.6735547 146.395511,30.768595 146.640954,30.768595 L154.687938,30.768595 L154.109397,33.9049587 L145.036816,33.9049587 C144.633588,33.9049587 144.261047,33.8151983 143.919179,33.6356749 C143.577312,33.4561515 143.274896,33.2079906 143.011921,32.8911846 C142.748947,32.5743786 142.542953,32.2047771 142.393934,31.7823691 C142.244915,31.3599612 142.170407,30.9058794 142.170407,30.4201102 L142.170407,24.1790634 L145.799439,24.1790634 L145.799439,29.7865014 Z M140.276999,33.8732782 L136.674264,33.8732782 L137.331697,24.1790634 L140.934432,24.1790634 L140.276999,33.8732782 Z M158.448457,24.1790634 L160,33.8732782 L156.397265,33.8732782 L154.845722,24.1790634 L158.448457,24.1790634 Z M153.425666,29.6280992 L149.875526,29.6280992 L149.112903,24.1790634 L152.663043,24.1790634 L153.425666,29.6280992 Z M159.763324,16.0688705 L154.451262,16.0688705 L159.763324,22.6900826 L155.371669,22.6900826 L150.085905,16.0688705 L148.797335,16.0688705 L145.667952,19.1101928 L149.323282,19.1101928 L150.927419,22.785124 L147.114306,22.785124 L145.562763,19.2369146 L142.012623,22.6900826 L136.753156,22.6900826 L143.800841,16.0688705 L136.674264,16.0688705 L136.674264,12.9641873 L146.325386,12.9641873 L146.325386,11.0633609 L150.138499,11.0633609 L150.138499,12.9641873 L159.763324,12.9641873 L159.763324,16.0688705 Z" id="鹏城生态-copy"></path>
            <g id="Group-Copy">
                <path d="M0.353860487,13.5881722 L18.8746898,1.55841162 C20.8981197,0.244141266 23.5096474,0.260365654 25.5165916,1.59967513 L41.1087979,12.0049417 C41.7146748,12.4092661 42.2284005,12.9369059 42.6163928,13.5533692 C44.1392199,15.9729199 43.4122819,19.1688485 40.9927312,20.6916756 L32.757857,25.874576 C31.5638032,26.6260946 30.0325388,26.5750881 28.8911427,25.7457753 L12.1584432,13.5881722 L0.353860487,21.9053046 L0.353860487,13.5881722 Z M18.1522444,9.87167421 L30.956389,18.623026 L34.5523464,16.5186148 C34.6618712,16.4545192 34.7559077,16.3670512 34.8277526,16.2624461 C35.0975114,15.8696811 34.9977952,15.3325995 34.6050302,15.0628408 L25.383991,8.72964764 C24.0852651,7.83765688 22.4035403,7.72467112 20.9971688,8.4349214 L18.1522444,9.87167421 Z M13.546489,17.4792665 L19.3861911,21.6757627 L10.7546752,27.7177089 C10.3643244,27.9909493 10.2693876,28.5288963 10.542628,28.9192472 C10.5978282,28.9981061 10.6658364,29.0671712 10.7438347,29.1235809 L19.323125,35.3282705 C20.7693043,36.3741721 22.7102382,36.421488 24.2056632,35.4472967 L42.9679738,23.2246301 L42.9679738,31.3867727 L25.1251713,43.3670808 C23.0987769,44.7276759 20.4525975,44.7347326 18.4189752,43.3849645 L2.3921356,32.7475334 C0.407165099,31.4300567 -0.133945579,28.7528943 1.18353108,26.7679238 C1.46911274,26.3376534 1.82963415,25.9621586 2.24793364,25.6593137 L13.546489,17.4792665 Z" id="Combined-Shape"></path>
            </g>
        </g>
    </g>
</svg>