<?xml version="1.0" encoding="UTF-8"?>
<svg width="50px" height="50px" viewBox="0 0 50 50" version="1.1" xmlns="http://www.w3.org/2000/svg" xmlns:xlink="http://www.w3.org/1999/xlink">
    <!-- Generator: Sketch 49.3 (51167) - http://www.bohemiancoding.com/sketch -->
    <title>2</title>
    <desc>Created with Sketch.</desc>
    <defs></defs>
    <g id="2" stroke="none" stroke-width="1" fill="none" fill-rule="evenodd">
        <g id="Group-9-Copy">
            <rect id="Rectangle-12-Copy" x="0" y="0" width="50" height="50"></rect>
            <g id="Group" transform="translate(0.000000, 4.000000)" fill-rule="nonzero">
                <g id="astrophysics" fill="#2585D5">
                    <path d="M0,32.7274406 C0.0146127737,33.4568343 0.615875912,34.0408433 1.35293111,34.041902 L48.6014484,34.041902 C49.3385036,34.0408433 49.9397668,33.4568343 49.9543796,32.7274406 L49.9543796,28.6217339 L0,28.6217339 L0,32.7274406 Z" id="Shape"></path>
                    <path d="M48.6014484,0.0529313739 L1.35293111,0.0529313739 C0.620509215,0.042697916 0.0171076642,0.618590773 0,1.34375 L0,27.0408515 L49.9543796,27.0408515 L49.9543796,1.34375 C49.9372719,0.618590773 49.3338703,0.042697916 48.6014484,0.0529313739 Z" id="Shape"></path>
                    <path d="M37.9611942,41.3817129 L32.8755845,41.3817129 L31.2542769,35.6227843 L18.5860516,35.6227843 L16.964744,41.3817129 L11.8791343,41.3817129 C11.4378992,41.3817129 11.0807766,41.735647 11.0807766,42.1721541 C11.0807766,42.6086611 11.4378992,42.9625952 11.8791343,42.9625952 L37.9611942,42.9625952 C38.4024293,42.9625952 38.7595518,42.6086611 38.7595518,42.1721541 C38.7595518,41.735647 38.4024293,41.3817129 37.9611942,41.3817129 Z" id="Shape"></path>
                </g>
                <g id="chengxurizhi" transform="translate(11.000000, 6.000000)" fill="#FFFFFF">
                    <path d="M15.0725777,0.879684246 C15.2359413,0.417420345 15.6434223,0.0826582529 16.13153,0.00971206238 C16.6163787,-0.0500494477 17.0932128,0.169346473 17.3605458,0.575193963 C17.6431209,0.994116381 17.6888168,1.52779476 17.4815188,1.98802884 L11.6713072,16.1355167 C11.4907243,16.6018218 11.0857276,16.9289313 10.6123549,16.9898294 C10.1389822,17.0507275 9.67262248,16.8349744 9.39210531,16.4278273 C9.11140579,16.0126609 9.06253341,15.4843826 9.26236614,15.0254322 L15.0725777,0.879684246 Z M23.3033454,13.6056375 C23.1605494,13.7602597 22.9589123,13.8482976 22.7475708,13.8482976 C22.5362292,13.8482976 22.3345922,13.7602597 22.1917962,13.6056375 L21.4466725,12.8174427 C21.1395107,12.4832928 21.1395107,11.9719103 21.4466725,11.6377604 L24.0502223,8.88168851 C24.3584518,8.54728245 24.3584518,8.03467232 24.0502223,7.70026626 L21.4466725,4.94419434 C21.1395107,4.61004444 21.1395107,4.09866194 21.4466725,3.76451204 L22.1917962,2.97631723 C22.3346633,2.8205431 22.5370774,2.73175211 22.749324,2.73175211 C22.9615706,2.73175211 23.1639848,2.8205431 23.3068519,2.97631723 L27.7688279,7.70026626 C28.0770574,8.03467232 28.0770574,8.54728245 27.7688279,8.88168851 L23.3068519,13.6056375 L23.3033454,13.6056375 Z M4.69234735,13.6056375 L0.230371322,8.87472872 C-0.0767904408,8.54057882 -0.0767904408,8.02919632 0.230371322,7.69504642 L4.69234735,2.97631723 C4.83521442,2.8205431 5.0376286,2.73175211 5.2498752,2.73175211 C5.46212181,2.73175211 5.66453599,2.8205431 5.80740305,2.97631723 L6.55252673,3.76451204 C6.8596885,4.09866194 6.8596885,4.61004444 6.55252673,4.94419434 L3.94897688,7.70026626 C3.64181511,8.03441616 3.64181511,8.54579866 3.94897688,8.87994856 L6.55252673,11.6360205 C6.86075622,11.9704265 6.86075622,12.4830367 6.55252673,12.8174427 L5.80740305,13.6056375 C5.66453599,13.7614117 5.46212181,13.8502027 5.2498752,13.8502027 C5.0376286,13.8502027 4.83521442,13.7614117 4.69234735,13.6056375 Z" id="Shape"></path>
                </g>
            </g>
        </g>
    </g>
</svg>