<?xml version="1.0" encoding="UTF-8"?>
<svg width="50px" height="50px" viewBox="0 0 50 50" version="1.1" xmlns="http://www.w3.org/2000/svg" xmlns:xlink="http://www.w3.org/1999/xlink">
    <!-- Generator: Sketch 49.3 (51167) - http://www.bohemiancoding.com/sketch -->
    <title>3</title>
    <desc>Created with Sketch.</desc>
    <defs></defs>
    <g id="3" stroke="none" stroke-width="1" fill="none" fill-rule="evenodd">
        <g id="Group-8-Copy">
            <rect id="Rectangle-12-Copy-2" x="0" y="0" width="50" height="50"></rect>
            <g id="zuzhi-2" transform="translate(0.000000, 5.000000)" fill="#2585D5" fill-rule="nonzero">
                <path d="M48.339134,30.6175384 L44.3257136,30.6175384 L44.3257136,20.869 C44.3309204,20.3163088 43.8923196,19.8635428 43.3450024,19.8566154 L43.3168928,19.8566154 L26.1888015,19.8313846 L26.1888015,15.4885384 L34.9902168,15.4885384 C35.9020038,15.4764188 36.632376,14.7219778 36.6236945,13.8012308 L36.6236945,1.68730767 C36.632376,0.766560653 35.9020038,0.0121196377 34.9902168,0 L14.944978,0 C14.033191,0.0121196158 13.3028188,0.766560638 13.3115003,1.68730767 L13.3115003,13.8012308 C13.3028188,14.7219778 14.033191,15.4764188 14.944978,15.4885384 L23.7463932,15.4885384 L23.7463932,19.8282308 L6.62142526,19.8061538 C6.35883569,19.8086513 6.10798499,19.9163867 5.92406341,20.1056568 C5.74014184,20.2949269 5.63821712,20.5502258 5.64071396,20.8153846 L5.64071396,21.3136923 C5.63811027,21.3547985 5.64020629,21.3960707 5.64696055,21.4366923 L5.64696055,30.6175384 L1.63354017,30.6175384 C0.722982129,30.6296566 -0.00688938468,31.3821713 6.24504362e-05,32.3016923 L6.24504362e-05,39.3126923 C-0.00861904684,40.2334394 0.721753141,40.9878804 1.63354017,41 L12.1027893,41 C13.0145763,40.9878804 13.7449484,40.2334393 13.7362669,39.3126923 L13.7362669,32.3048462 C13.7449485,31.3840991 13.0145763,30.6296581 12.1027893,30.6175384 L8.08936887,30.6175384 L8.08936887,22.3292308 L23.7463932,22.3513077 L23.7463932,30.6175384 L19.7329728,30.6175384 C18.8211858,30.6296581 18.0908136,31.3840991 18.0994952,32.3048462 L18.0994952,39.3126923 C18.0908137,40.2334393 18.8211858,40.9878804 19.7329728,41 L30.2022219,41 C31.114009,40.9878804 31.8443811,40.2334394 31.8356996,39.3126923 L31.8356996,32.3048462 C31.8443812,31.3840991 31.114009,30.6296581 30.2022219,30.6175384 L26.1888015,30.6175384 L26.1888015,22.3544616 L41.8833053,22.3765384 L41.8833053,30.6175384 L37.8698849,30.6175384 C36.9580979,30.6296581 36.2277257,31.3840991 36.2364073,32.3048462 L36.2364073,39.3126923 C36.2277258,40.2334393 36.9580979,40.9878804 37.8698849,41 L48.339134,41 C49.250921,40.9878804 49.9812932,40.2334394 49.9726117,39.3126923 L49.9726117,32.3048462 C49.9812933,31.3840991 49.2509211,30.6296581 48.339134,30.6175384 Z" id="Shape"></path>
            </g>
        </g>
    </g>
</svg>